HIERARCHY
ROOT pelvis
{
	OFFSET 0.003123 0.950419 0.012037
	CHANNELS 6 Xposition Yposition Zposition Xrotation Yrotation Zrotation
	JOINT left_hip
	{
		OFFSET 0.058189 -0.092763 -0.026001
		CHANNELS 6 Xposition Yposition Zposition Xrotation Yrotation Zrotation
		JOINT left_knee
		{
			OFFSET 0.054695 -0.378753 -0.009396
			CHANNELS 6 Xposition Yposition Zposition Xrotation Yrotation Zrotation
			JOINT left_ankle
			{
				OFFSET -0.043453 -0.403060 -0.031876
				CHANNELS 6 Xposition Yposition Zposition Xrotation Yrotation Zrotation
				JOINT left_foot
				{
					OFFSET 0.047257 -0.057997 0.118216
					CHANNELS 6 Xposition Yposition Zposition Xrotation Yrotation Zrotation
					End Site
					{
						OFFSET 0.000000 0.139900 0.000000
					}
				}
			}
		}
	}
	JOINT right_hip
	{
		OFFSET -0.063267 -0.103908 -0.021250
		CHANNELS 6 Xposition Yposition Zposition Xrotation Yrotation Zrotation
		JOINT right_knee
		{
			OFFSET -0.044210 -0.362380 -0.016824
			CHANNELS 6 Xposition Yposition Zposition Xrotation Yrotation Zrotation
			JOINT right_ankle
			{
				OFFSET 0.015417 -0.410728 -0.020192
				CHANNELS 6 Xposition Yposition Zposition Xrotation Yrotation Zrotation
				JOINT right_foot
				{
					OFFSET -0.038812 -0.058328 0.119049
					CHANNELS 6 Xposition Yposition Zposition Xrotation Yrotation Zrotation
					End Site
					{
						OFFSET 0.000000 0.138135 0.000000
					}
				}
			}
		}
	}
	JOINT spine1
	{
		OFFSET -0.002763 0.109891 -0.027618
		CHANNELS 6 Xposition Yposition Zposition Xrotation Yrotation Zrotation
		JOINT spine2
		{
			OFFSET 0.009448 0.131853 -0.005940
			CHANNELS 6 Xposition Yposition Zposition Xrotation Yrotation Zrotation
			JOINT spine3
			{
				OFFSET -0.011330 0.052235 0.028447
				CHANNELS 6 Xposition Yposition Zposition Xrotation Yrotation Zrotation
				JOINT neck
				{
					OFFSET -0.012164 0.165167 -0.031615
					CHANNELS 6 Xposition Yposition Zposition Xrotation Yrotation Zrotation
					JOINT head
					{
						OFFSET 0.024783 0.160452 0.020737
						CHANNELS 6 Xposition Yposition Zposition Xrotation Yrotation Zrotation
						JOINT jaw
						{
							OFFSET -0.015765 -0.000520 -0.005639
							CHANNELS 6 Xposition Yposition Zposition Xrotation Yrotation Zrotation
							End Site
							{
								OFFSET 0.000000 0.062538 -0.000000
							}
						}
						JOINT left_eye_smplhf
						{
							OFFSET 0.020502 0.042642 0.066147
							CHANNELS 6 Xposition Yposition Zposition Xrotation Yrotation Zrotation
							End Site
							{
								OFFSET 0.000000 0.062538 -0.000000
							}
						}
						JOINT right_eye_smplhf
						{
							OFFSET -0.042697 0.042642 0.066147
							CHANNELS 6 Xposition Yposition Zposition Xrotation Yrotation Zrotation
							End Site
							{
								OFFSET 0.000000 0.062538 -0.000000
							}
						}
					}
				}
				JOINT left_collar
				{
					OFFSET 0.046364 0.084944 -0.007220
					CHANNELS 6 Xposition Yposition Zposition Xrotation Yrotation Zrotation
					JOINT left_shoulder
					{
						OFFSET 0.119239 0.057728 -0.015461
						CHANNELS 6 Xposition Yposition Zposition Xrotation Yrotation Zrotation
						JOINT left_elbow
						{
							OFFSET 0.254123 -0.072151 -0.042459
							CHANNELS 6 Xposition Yposition Zposition Xrotation Yrotation Zrotation
							JOINT left_wrist
							{
								OFFSET 0.251987 0.023221 -0.002472
								CHANNELS 6 Xposition Yposition Zposition Xrotation Yrotation Zrotation
								JOINT left_index1
								{
									OFFSET 0.101902 -0.008688 0.019351
									CHANNELS 6 Xposition Yposition Zposition Xrotation Yrotation Zrotation
									JOINT left_index2
									{
										OFFSET 0.031949 0.002218 0.003010
										CHANNELS 6 Xposition Yposition Zposition Xrotation Yrotation Zrotation
										JOINT left_index3
										{
											OFFSET 0.022545 -0.002350 0.000055
											CHANNELS 6 Xposition Yposition Zposition Xrotation Yrotation Zrotation
											End Site
											{
												OFFSET 0.000000 0.022667 0.000000
											}
										}
									}
								}
								JOINT left_middle1
								{
									OFFSET 0.109398 -0.006328 -0.003981
									CHANNELS 6 Xposition Yposition Zposition Xrotation Yrotation Zrotation
									JOINT left_middle2
									{
										OFFSET 0.030611 0.000807 -0.004023
										CHANNELS 6 Xposition Yposition Zposition Xrotation Yrotation Zrotation
										JOINT left_middle3
										{
											OFFSET 0.023515 -0.002009 -0.004114
											CHANNELS 6 Xposition Yposition Zposition Xrotation Yrotation Zrotation
											End Site
											{
												OFFSET 0.000000 0.023957 0.000000
											}
										}
									}
								}
								JOINT left_pinky1
								{
									OFFSET 0.084047 -0.014539 -0.043750
									CHANNELS 6 Xposition Yposition Zposition Xrotation Yrotation Zrotation
									JOINT left_pinky2
									{
										OFFSET 0.015471 -0.001132 -0.011999
										CHANNELS 6 Xposition Yposition Zposition Xrotation Yrotation Zrotation
										JOINT left_pinky3
										{
											OFFSET 0.015533 -0.001665 -0.011217
											CHANNELS 6 Xposition Yposition Zposition Xrotation Yrotation Zrotation
											End Site
											{
												OFFSET 0.000000 0.019232 0.000000
											}
										}
									}
								}
								JOINT left_ring1
								{
									OFFSET 0.097444 -0.009268 -0.027345
									CHANNELS 6 Xposition Yposition Zposition Xrotation Yrotation Zrotation
									JOINT left_ring2
									{
										OFFSET 0.028047 0.001485 -0.005266
										CHANNELS 6 Xposition Yposition Zposition Xrotation Yrotation Zrotation
										JOINT left_ring3
										{
											OFFSET 0.022822 -0.001458 -0.007094
											CHANNELS 6 Xposition Yposition Zposition Xrotation Yrotation Zrotation
											End Site
											{
												OFFSET 0.000000 0.023944 0.000000
											}
										}
									}
								}
								JOINT left_thumb1
								{
									OFFSET 0.040636 -0.017977 0.025611
									CHANNELS 6 Xposition Yposition Zposition Xrotation Yrotation Zrotation
									JOINT left_thumb2
									{
										OFFSET 0.017016 0.000976 0.024978
										CHANNELS 6 Xposition Yposition Zposition Xrotation Yrotation Zrotation
										JOINT left_thumb3
										{
											OFFSET 0.020523 -0.005159 0.015523
											CHANNELS 6 Xposition Yposition Zposition Xrotation Yrotation Zrotation
											End Site
											{
												OFFSET 0.000000 0.026245 -0.000000
											}
										}
									}
								}
							}
						}
					}
				}
				JOINT right_collar
				{
					OFFSET -0.047695 0.084339 -0.013400
					CHANNELS 6 Xposition Yposition Zposition Xrotation Yrotation Zrotation
					JOINT right_shoulder
					{
						OFFSET -0.102578 0.053524 -0.012669
						CHANNELS 6 Xposition Yposition Zposition Xrotation Yrotation Zrotation
						JOINT right_elbow
						{
							OFFSET -0.271150 -0.036492 -0.026467
							CHANNELS 6 Xposition Yposition Zposition Xrotation Yrotation Zrotation
							JOINT right_wrist
							{
								OFFSET -0.249267 -0.004533 -0.015325
								CHANNELS 6 Xposition Yposition Zposition Xrotation Yrotation Zrotation
								JOINT right_index1
								{
									OFFSET -0.099880 -0.011783 0.019600
									CHANNELS 6 Xposition Yposition Zposition Xrotation Yrotation Zrotation
									JOINT right_index2
									{
										OFFSET -0.031948 0.002218 0.003011
										CHANNELS 6 Xposition Yposition Zposition Xrotation Yrotation Zrotation
										JOINT right_index3
										{
											OFFSET -0.022545 -0.002349 0.000055
											CHANNELS 6 Xposition Yposition Zposition Xrotation Yrotation Zrotation
											End Site
											{
												OFFSET 0.000000 0.022667 0.000000
											}
										}
									}
								}
								JOINT right_middle1
								{
									OFFSET -0.107376 -0.009422 -0.003734
									CHANNELS 6 Xposition Yposition Zposition Xrotation Yrotation Zrotation
									JOINT right_middle2
									{
										OFFSET -0.030611 0.000808 -0.004023
										CHANNELS 6 Xposition Yposition Zposition Xrotation Yrotation Zrotation
										JOINT right_middle3
										{
											OFFSET -0.023515 -0.002009 -0.004114
											CHANNELS 6 Xposition Yposition Zposition Xrotation Yrotation Zrotation
											End Site
											{
												OFFSET 0.000000 0.023957 0.000000
											}
										}
									}
								}
								JOINT right_pinky1
								{
									OFFSET -0.082027 -0.017634 -0.043503
									CHANNELS 6 Xposition Yposition Zposition Xrotation Yrotation Zrotation
									JOINT right_pinky2
									{
										OFFSET -0.015471 -0.001132 -0.011999
										CHANNELS 6 Xposition Yposition Zposition Xrotation Yrotation Zrotation
										JOINT right_pinky3
										{
											OFFSET -0.015533 -0.001665 -0.011216
											CHANNELS 6 Xposition Yposition Zposition Xrotation Yrotation Zrotation
											End Site
											{
												OFFSET 0.000000 0.019232 0.000000
											}
										}
									}
								}
								JOINT right_ring1
								{
									OFFSET -0.095423 -0.012362 -0.027099
									CHANNELS 6 Xposition Yposition Zposition Xrotation Yrotation Zrotation
									JOINT right_ring2
									{
										OFFSET -0.028047 0.001485 -0.005266
										CHANNELS 6 Xposition Yposition Zposition Xrotation Yrotation Zrotation
										JOINT right_ring3
										{
											OFFSET -0.022822 -0.001459 -0.007093
											CHANNELS 6 Xposition Yposition Zposition Xrotation Yrotation Zrotation
											End Site
											{
												OFFSET 0.000000 0.023943 0.000000
											}
										}
									}
								}
								JOINT right_thumb1
								{
									OFFSET -0.038613 -0.021074 0.025861
									CHANNELS 6 Xposition Yposition Zposition Xrotation Yrotation Zrotation
									JOINT right_thumb2
									{
										OFFSET -0.017015 0.000976 0.024978
										CHANNELS 6 Xposition Yposition Zposition Xrotation Yrotation Zrotation
										JOINT right_thumb3
										{
											OFFSET -0.020526 -0.005157 0.015522
											CHANNELS 6 Xposition Yposition Zposition Xrotation Yrotation Zrotation
											End Site
											{
												OFFSET 0.000000 0.026245 -0.000000
											}
										}
									}
								}
							}
						}
					}
				}
			}
		}
	}
}
MOTION
Frames: 4
Frame Time: 0.041667
-0.215218 0.918985 0.057519 -3.171926 -32.553914 -1.638762 0.058189 -0.092763 -0.026001 -8.488892 -0.921561 1.422752 0.054695 -0.378753 -0.009396 20.852854 -5.554774 0.794350 -0.043453 -0.403060 -0.031876 1.434077 10.562084 -5.014529 0.047257 -0.057997 0.118216 -8.124727 -10.269779 6.661894 -0.063268 -0.103908 -0.021250 -9.397983 0.053991 -2.361922 -0.044210 -0.362380 -0.016824 28.608587 3.949644 0.934442 0.015417 -0.410728 -0.020192 -0.554280 -10.659396 6.331433 -0.038812 -0.058328 0.119049 -11.697268 10.284046 -7.990559 -0.002763 0.109891 -0.027618 11.212135 1.838220 1.045081 0.009448 0.131853 -0.005940 1.764832 2.570219 0.392845 -0.011330 0.052235 0.028447 3.868019 2.169058 0.319188 -0.012164 0.165167 -0.031615 -7.242476 19.920557 -4.172268 0.024784 0.160452 0.020737 2.393905 17.890787 -3.844010 -0.015765 -0.000520 -0.005639 0.000000 0.000001 -0.000000 0.020502 0.042642 0.066147 0.000000 0.000001 0.000000 -0.042697 0.042642 0.066147 0.000000 0.000001 0.000000 0.046364 0.084944 -0.007220 -0.521789 -5.022415 2.682081 0.119239 0.057728 -0.015461 10.561078 -15.174133 -34.948415 0.254123 -0.072150 -0.042459 223.498584 -111.817771 210.070172 0.251987 0.023221 -0.002472 -1.306409 -8.170498 -3.079237 0.101902 -0.008688 0.019351 -4.477836 -20.690125 -12.764469 0.031949 0.002218 0.003010 4.274707 -0.987542 -25.141228 0.022545 -0.002350 0.000055 -0.405211 0.848341 -6.933081 0.109397 -0.006327 -0.003981 -0.895755 -11.860905 -10.305965 0.030611 0.000808 -0.004023 1.925201 -0.864678 -29.637232 0.023515 -0.002009 -0.004114 0.328364 0.933528 -5.401421 0.084047 -0.014539 -0.043750 23.458251 -8.469036 -19.185322 0.015470 -0.001132 -0.011999 2.273162 -5.863880 -7.164042 0.015533 -0.001665 -0.011217 -0.797576 -1.228679 0.121089 0.097444 -0.009268 -0.027345 6.271506 -13.194718 -13.008108 0.028047 0.001485 -0.005266 -1.298377 -3.208228 -28.578169 0.022822 -0.001458 -0.007094 -1.445323 -3.792930 -3.914101 0.040636 -0.017977 0.025611 -16.405039 -5.993813 -14.921031 0.017016 0.000976 0.024978 0.051634 0.627193 3.867431 0.020523 -0.005160 0.015523 3.381597 -3.916656 -3.667395 -0.047695 0.084339 -0.013400 -0.960120 8.419604 1.110753 -0.102578 0.053524 -0.012669 1.919736 20.484822 38.053282 -0.271150 -0.036492 -0.026467 89.968488 73.434164 -88.069839 -0.249268 -0.004533 -0.015325 -3.256532 7.623555 -1.130394 -0.099880 -0.011783 0.019600 14.038510 56.016014 -25.865522 -0.031948 0.002218 0.003011 3.691918 4.345759 26.463404 -0.022545 -0.002349 0.000055 0.373710 0.525004 3.795267 -0.107376 -0.009422 -0.003734 20.828880 29.626038 -37.653286 -0.030611 0.000808 -0.004023 1.978483 1.479924 26.715395 -0.023515 -0.002009 -0.004114 -0.237029 1.058329 4.212131 -0.082027 -0.017634 -0.043503 14.159114 8.307424 -8.212726 -0.015471 -0.001132 -0.011999 -0.965609 2.991669 4.661693 -0.015533 -0.001665 -0.011216 -2.364798 0.709508 -2.606133 -0.095423 -0.012362 -0.027099 18.565217 17.967871 -32.902944 -0.028047 0.001485 -0.005266 -0.332384 2.508193 22.145201 -0.022822 -0.001459 -0.007093 -1.140435 3.597082 0.880869 -0.038613 -0.021075 0.025861 -10.827748 20.423106 6.467717 -0.017015 0.000976 0.024978 3.148761 1.078257 -12.307367 -0.020525 -0.005157 0.015521 5.329498 9.146973 3.214167 
-0.209123 0.918861 0.064240 -2.869383 -29.451820 -1.119386 0.058189 -0.092763 -0.026001 -7.779041 -0.697620 0.548406 0.054695 -0.378753 -0.009396 18.972131 -5.943043 0.406749 -0.043453 -0.403060 -0.031876 2.292062 10.684709 -4.854771 0.047257 -0.057997 0.118216 -8.276489 -10.526308 6.543063 -0.063267 -0.103908 -0.021250 -9.610606 -0.234669 -3.130201 -0.044210 -0.362380 -0.016824 28.643156 3.276679 0.805115 0.015417 -0.410728 -0.020192 0.906631 -11.539621 7.324729 -0.038812 -0.058328 0.119049 -12.605906 11.417221 -7.843285 -0.002763 0.109891 -0.027618 10.768392 1.534786 1.852672 0.009448 0.131853 -0.005940 0.945863 2.598459 0.559436 -0.011330 0.052235 0.028447 4.433094 2.262333 0.268668 -0.012164 0.165167 -0.031615 -5.808347 16.577947 -3.643381 0.024784 0.160452 0.020737 0.904386 18.464045 -3.415872 -0.015765 -0.000520 -0.005639 0.000000 0.000000 -0.000000 0.020502 0.042642 0.066147 0.000000 0.000000 -0.000000 -0.042697 0.042642 0.066147 0.000000 0.000000 -0.000000 0.046364 0.084944 -0.007221 -3.140476 -8.826103 7.243710 0.119239 0.057728 -0.015461 10.391983 -16.901448 -27.057214 0.254123 -0.072151 -0.042459 247.337051 -101.575787 234.908401 0.251987 0.023221 -0.002472 -3.689821 -10.054827 -7.905958 0.101902 -0.008688 0.019351 -3.385862 -16.435163 -12.545776 0.031949 0.002218 0.003010 3.342462 -1.286619 -26.860182 0.022545 -0.002350 0.000055 -0.462004 -0.067399 -5.485694 0.109398 -0.006327 -0.003981 -1.744778 -9.527548 -16.801248 0.030611 0.000807 -0.004023 1.796780 0.253101 -27.250397 0.023515 -0.002009 -0.004114 0.173841 0.474436 -4.769563 0.084047 -0.014539 -0.043750 18.187180 -4.079375 -29.315674 0.015471 -0.001132 -0.011999 1.286760 -4.358168 -9.368193 0.015534 -0.001665 -0.011217 -0.407109 -0.679534 -0.365938 0.097444 -0.009268 -0.027345 3.558061 -11.339637 -20.020715 0.028047 0.001485 -0.005266 -0.248213 -2.402372 -25.707811 0.022822 -0.001458 -0.007094 -0.891090 -2.678569 -3.331884 0.040636 -0.017977 0.025611 -13.151691 -7.716889 -12.253754 0.017016 0.000976 0.024978 0.781976 -1.027745 4.506232 0.020523 -0.005159 0.015523 2.377609 -2.870575 -4.156846 -0.047695 0.084339 -0.013400 -3.293226 10.151031 -2.579255 -0.102578 0.053524 -0.012669 0.772259 19.994505 28.356801 -0.271150 -0.036492 -0.026467 126.723846 71.836487 -127.910865 -0.249267 -0.004533 -0.015325 -5.048246 8.929958 0.684302 -0.099881 -0.011783 0.019600 18.073948 39.538671 -47.054795 -0.031948 0.002218 0.003011 2.919684 3.190723 28.878139 -0.022545 -0.002349 0.000055 1.660678 0.826792 6.733367 -0.107376 -0.009422 -0.003734 22.298428 17.663019 -61.107189 -0.030612 0.000808 -0.004023 2.608155 0.501196 32.212391 -0.023515 -0.002009 -0.004114 0.126571 0.285031 8.274321 -0.082027 -0.017635 -0.043503 13.631211 11.056884 -44.986365 -0.015471 -0.001132 -0.011999 3.905801 3.706074 10.096530 -0.015533 -0.001665 -0.011216 -4.205991 4.085634 4.497680 -0.095423 -0.012362 -0.027099 19.010264 10.156774 -61.814332 -0.028046 0.001485 -0.005266 1.050363 1.569088 31.906675 -0.022822 -0.001459 -0.007093 -0.674766 3.606102 6.388378 -0.038613 -0.021074 0.025861 -10.838682 2.555974 -3.865950 -0.017015 0.000976 0.024978 3.236623 -1.888936 -12.814249 -0.020526 -0.005157 0.015522 8.809563 11.972033 1.740297 
-0.204216 0.918227 0.072862 -2.534229 -26.456922 -0.726078 0.058189 -0.092763 -0.026001 -7.436619 -0.459466 -0.274509 0.054695 -0.378753 -0.009396 18.290587 -5.932187 0.042139 -0.043453 -0.403060 -0.031876 2.418895 10.277297 -4.310150 0.047257 -0.057997 0.118216 -8.154338 -9.920433 6.749517 -0.063267 -0.103908 -0.021250 -9.250932 -0.621383 -3.737881 -0.044210 -0.362380 -0.016824 28.271732 2.685699 0.422620 0.015417 -0.410728 -0.020192 1.422306 -11.740988 7.852017 -0.038812 -0.058328 0.119049 -12.597155 11.935004 -8.424076 -0.002763 0.109891 -0.027618 10.498667 1.773618 2.595090 0.009448 0.131853 -0.005940 0.363556 2.864655 0.301196 -0.011330 0.052235 0.028447 4.180877 2.695230 0.078376 -0.012164 0.165167 -0.031615 -5.306487 12.259016 -2.634135 0.024784 0.160452 0.020737 0.902466 11.587354 -1.960487 -0.015765 -0.000520 -0.005639 0.000000 0.000000 -0.000000 0.020502 0.042642 0.066147 -0.000000 0.000000 -0.000000 -0.042697 0.042642 0.066147 -0.000000 0.000000 -0.000000 0.046364 0.084944 -0.007220 -5.316164 -11.743861 8.297705 0.119239 0.057728 -0.015461 7.272986 -19.004708 -24.306160 0.254123 -0.072151 -0.042459 285.013685 -99.995192 278.167268 0.251987 0.023221 -0.002472 -7.389045 -10.699105 -7.448116 0.101902 -0.008688 0.019351 -3.464554 -16.738302 -6.113080 0.031949 0.002218 0.003010 4.017913 0.491928 -24.844140 0.022545 -0.002350 0.000055 -0.503119 0.613609 -6.630007 0.109397 -0.006327 -0.003981 -4.101611 -9.923490 -5.444066 0.030611 0.000807 -0.004023 1.717756 0.564058 -30.475221 0.023515 -0.002009 -0.004114 0.338070 0.588954 -6.254655 0.084047 -0.014539 -0.043750 14.773125 -2.627246 -22.783395 0.015470 -0.001132 -0.011999 -0.787234 -4.348407 -8.490980 0.015533 -0.001665 -0.011217 -1.370689 -1.471886 0.221893 0.097444 -0.009268 -0.027345 5.102888 -10.494469 -6.159683 0.028047 0.001485 -0.005266 -0.713154 -0.880747 -28.912324 0.022822 -0.001458 -0.007094 -1.084214 -3.070541 -4.560598 0.040636 -0.017977 0.025611 -11.329780 -9.143047 -14.515335 0.017015 0.000976 0.024978 0.176724 -2.122742 4.674486 0.020523 -0.005160 0.015523 3.244906 -4.230948 -3.485407 -0.047695 0.084339 -0.013400 -5.912988 14.069985 -3.194290 -0.102578 0.053525 -0.012669 -3.982950 21.686640 23.898670 -0.271150 -0.036493 -0.026467 117.024759 73.753400 -121.582831 -0.249267 -0.004532 -0.015325 -7.069739 9.039193 0.762426 -0.099880 -0.011783 0.019600 5.905048 25.114290 -35.309397 -0.031948 0.002218 0.003011 4.108580 0.279564 16.089397 -0.022545 -0.002349 0.000055 -0.028522 -0.608005 6.846248 -0.107376 -0.009422 -0.003734 6.493544 12.838569 -44.480712 -0.030611 0.000808 -0.004023 2.253525 0.064979 28.110047 -0.023515 -0.002010 -0.004114 0.016390 -0.166388 5.222634 -0.082027 -0.017634 -0.043503 5.029293 -0.941097 -18.537159 -0.015471 -0.001132 -0.011999 -2.082707 3.246145 4.842866 -0.015533 -0.001665 -0.011216 -1.808638 1.893004 -2.385093 -0.095423 -0.012362 -0.027099 7.958919 0.062927 -40.858847 -0.028047 0.001485 -0.005266 -1.411503 -0.227993 21.641676 -0.022822 -0.001459 -0.007093 -1.020113 3.326228 0.655668 -0.038613 -0.021075 0.025861 -9.343762 11.176614 2.450218 -0.017015 0.000976 0.024978 2.892494 -0.739803 -11.032550 -0.020526 -0.005157 0.015522 5.125227 7.183253 1.952801 
-0.197872 0.916938 0.084035 -2.281608 -23.509682 -0.464456 0.058189 -0.092763 -0.026001 -6.392030 -0.055363 -1.071777 0.054695 -0.378753 -0.009396 16.960466 -5.548597 -0.352871 -0.043453 -0.403060 -0.031876 2.122606 9.224225 -3.683179 0.047257 -0.057997 0.118216 -7.814155 -8.849168 6.917356 -0.063267 -0.103908 -0.021250 -8.294652 -0.721961 -4.248094 -0.044210 -0.362380 -0.016824 27.383067 2.168044 -0.492657 0.015417 -0.410728 -0.020192 1.875016 -11.481470 8.288553 -0.038812 -0.058328 0.119049 -12.304805 11.799941 -9.052735 -0.002763 0.109891 -0.027618 9.232555 1.393879 3.497354 0.009448 0.131853 -0.005940 0.318674 2.320241 0.418601 -0.011330 0.052235 0.028447 3.593488 2.431251 0.084869 -0.012164 0.165167 -0.031615 -4.896887 9.493442 -2.229018 0.024783 0.160452 0.020737 1.912191 13.531159 -1.971532 -0.015765 -0.000520 -0.005639 0.000000 -0.000001 0.000000 0.020502 0.042642 0.066147 0.000000 -0.000001 0.000000 -0.042697 0.042641 0.066147 0.000000 -0.000001 0.000000 0.046364 0.084944 -0.007220 -7.099147 -15.233994 9.226444 0.119239 0.057728 -0.015461 3.774463 -22.622398 -23.360420 0.254123 -0.072150 -0.042459 300.760960 -99.809001 296.364667 0.251987 0.023221 -0.002472 -8.550336 -11.276690 -8.546481 0.101902 -0.008688 0.019351 -1.263672 -30.020003 3.594869 0.031949 0.002218 0.003010 4.042103 -1.623457 -22.807882 0.022545 -0.002350 0.000055 -0.336732 0.301390 -6.738813 0.109397 -0.006327 -0.003981 3.085715 -16.944869 11.589144 0.030611 0.000807 -0.004023 2.147991 -0.515026 -26.066456 0.023515 -0.002009 -0.004114 0.251031 0.513000 -5.691777 0.084047 -0.014539 -0.043750 10.550782 7.341130 -10.052549 0.015471 -0.001131 -0.011999 -0.213498 -4.549425 -5.435421 0.015534 -0.001665 -0.011217 -1.207932 -1.307668 0.812014 0.097444 -0.009268 -0.027345 10.156499 -11.147641 8.492220 0.028047 0.001486 -0.005266 0.409717 -1.691673 -23.317086 0.022822 -0.001458 -0.007094 -1.007615 -3.516223 -2.980365 0.040636 -0.017977 0.025611 -5.444583 -19.485896 -10.288175 0.017015 0.000976 0.024978 2.156724 -3.924433 6.352423 0.020523 -0.005160 0.015523 2.164546 -6.657335 -3.049866 -0.047695 0.084339 -0.013400 -6.981133 16.184710 -2.310865 -0.102578 0.053525 -0.012669 -9.096278 23.715137 22.408942 -0.271150 -0.036492 -0.026467 106.524525 76.496848 -115.348180 -0.249268 -0.004532 -0.015325 -7.483278 8.049276 0.567203 -0.099880 -0.011783 0.019600 3.261848 11.875329 -40.380297 -0.031948 0.002218 0.003011 5.101552 1.761945 18.972643 -0.022545 -0.002349 0.000055 -0.290554 0.056859 11.114897 -0.107376 -0.009422 -0.003734 2.981130 9.553022 -46.843801 -0.030611 0.000808 -0.004023 2.781218 -0.112437 31.242948 -0.023515 -0.002009 -0.004114 0.454321 0.513355 7.305946 -0.082027 -0.017634 -0.043503 -0.441587 6.259035 -32.062670 -0.015471 -0.001132 -0.011999 3.521818 2.216745 8.826435 -0.015533 -0.001665 -0.011216 -0.895017 2.620840 1.940936 -0.095423 -0.012362 -0.027099 7.829730 2.455554 -45.676678 -0.028047 0.001485 -0.005266 -0.217349 -1.744961 28.082830 -0.022822 -0.001458 -0.007093 -0.796206 4.223750 3.931616 -0.038613 -0.021074 0.025861 -1.571174 1.976580 -10.413436 -0.017015 0.000976 0.024978 1.358606 -2.934394 -9.196542 -0.020525 -0.005157 0.015522 7.461213 7.642159 1.788619 
